# xmcd
#
# Track frame offsets:
#	150
#	14565
#	20938
#	23818
#	37875
#	47795
#	52757
#	64438
#	73936
#	78924
#	93588
#	100224
#	105504
#	121560
#	130397
#	142888
#	155007
#	166965
#	181672
#
# Disc length: 2603 seconds
#
# Revision: 1
# Processed by: cddbd v1.5.2PL0 Copyright (c) Steve Scherf et al.
# Submitted via: audiograbber 1.83.01
#
DISCID=fa0a2913
DTITLE=Ceske sprostonarodni pisne - Od Tabora jedou vozy
DYEAR=2007
DGENRE=Vtipy
TTITLE0=Od Tabora jedou vozy
TTITLE1=Jestli ja se letos nevdam
TTITLE2=Nas Matej
TTITLE3=Bystrice obec znama
TTITLE4=Vzkazala mne moje mla
TTITLE5=V mori plujou rybicky
TTITLE6=Dudacek
TTITLE7=Zizkovska romance
TTITLE8=Ma mila ma
TTITLE9=To byla kocka
TTITLE10=Stala u dubu
TTITLE11=Kdyz ty k nam chces chodivat
TTITLE12=Zpival jsem se slzou v oku
TTITLE13=Byla jsem mlada
TTITLE14=Pisar
TTITLE15=Okolo Suce
TTITLE16=Ja mam doma kvocnu
TTITLE17=Ja jsem lokaj od baronky
TTITLE18=Ja jsem muzikant
EXTD=
EXTT0=
EXTT1=
EXTT2=
EXTT3=
EXTT4=
EXTT5=
EXTT6=
EXTT7=
EXTT8=
EXTT9=
EXTT10=
EXTT11=
EXTT12=
EXTT13=
EXTT14=
EXTT15=
EXTT16=
EXTT17=
EXTT18=
PLAYORDER=
